<?xml version="1.0" encoding="UTF-8" standalone="no"?>
<!DOCTYPE svg PUBLIC "-//W3C//DTD SVG 1.1//EN"
 "http://www.w3.org/Graphics/SVG/1.1/DTD/svg11.dtd">
<!-- Generated by graphviz version 2.43.0 (0)
 -->
<!-- Title: th_ctx_acceptor Pages: 1 -->
<svg width="320pt" height="198pt"
 viewBox="0.00 0.00 320.00 198.07" xmlns="http://www.w3.org/2000/svg" xmlns:xlink="http://www.w3.org/1999/xlink">
<g id="graph0" class="graph" transform="scale(1 1) rotate(0) translate(4 194.07)">
<title>th_ctx_acceptor</title>
<polygon fill="white" stroke="transparent" points="-4,4 -4,-194.07 316,-194.07 316,4 -4,4"/>
<!-- 0 -->
<g id="node1" class="node">
<title>0</title>
<ellipse fill="none" stroke="magenta" cx="22" cy="-100.07" rx="18" ry="18"/>
<ellipse fill="none" stroke="magenta" cx="22" cy="-100.07" rx="22" ry="22"/>
<text text-anchor="middle" x="22" y="-96.37" font-family="Helvetica,Arial,sans-serif" font-size="14.00">0</text>
</g>
<!-- 1 -->
<g id="node2" class="node">
<title>1</title>
<ellipse fill="none" stroke="black" cx="294" cy="-100.07" rx="18" ry="18"/>
<text text-anchor="middle" x="294" y="-96.37" font-family="Helvetica,Arial,sans-serif" font-size="14.00">1</text>
</g>
<!-- 0&#45;&gt;1 -->
<g id="edge1" class="edge">
<title>0&#45;&gt;1</title>
<path fill="none" stroke="#ffa9a9" d="M36.49,-116.87C43.46,-124.72 52.49,-133.71 62,-140.07 106.46,-169.8 125.28,-181.08 178,-172.07 203.08,-167.79 210.01,-165.87 232,-153.07 247.37,-144.13 262.47,-131.05 273.81,-120.13"/>
<polygon fill="#ffa9a9" stroke="#ffa9a9" points="276.37,-122.51 281.01,-112.98 271.44,-117.54 276.37,-122.51"/>
<text text-anchor="middle" x="160" y="-178.87" font-family="Helvetica,Arial,sans-serif" font-size="14.00">e</text>
</g>
<!-- 2 -->
<g id="node3" class="node">
<title>2</title>
<ellipse fill="none" stroke="black" cx="160" cy="-146.07" rx="18" ry="18"/>
<text text-anchor="middle" x="160" y="-142.37" font-family="Helvetica,Arial,sans-serif" font-size="14.00">2</text>
</g>
<!-- 0&#45;&gt;2 -->
<g id="edge2" class="edge">
<title>0&#45;&gt;2</title>
<path fill="none" stroke="#9cc0ff" d="M41.74,-110.06C48.06,-113.2 55.24,-116.51 62,-119.07 85.28,-127.9 112.67,-135.26 132.4,-140.06"/>
<polygon fill="#9cc0ff" stroke="#9cc0ff" points="131.69,-143.49 142.23,-142.39 133.31,-136.67 131.69,-143.49"/>
<text text-anchor="middle" x="66" y="-124.87" font-family="Helvetica,Arial,sans-serif" font-size="14.00">i</text>
</g>
<!-- 3 -->
<g id="node4" class="node">
<title>3</title>
<ellipse fill="none" stroke="black" cx="160" cy="-100.07" rx="18" ry="18"/>
<text text-anchor="middle" x="160" y="-96.37" font-family="Helvetica,Arial,sans-serif" font-size="14.00">3</text>
</g>
<!-- 0&#45;&gt;3 -->
<g id="edge3" class="edge">
<title>0&#45;&gt;3</title>
<path fill="none" stroke="#94ff96" d="M44.25,-100.07C67.78,-100.07 105.79,-100.07 131.56,-100.07"/>
<polygon fill="#94ff96" stroke="#94ff96" points="131.78,-103.57 141.78,-100.07 131.78,-96.57 131.78,-103.57"/>
<text text-anchor="middle" x="66" y="-103.87" font-family="Helvetica,Arial,sans-serif" font-size="14.00">o</text>
</g>
<!-- 4 -->
<g id="node5" class="node">
<title>4</title>
<ellipse fill="none" stroke="black" cx="106" cy="-52.07" rx="18" ry="18"/>
<text text-anchor="middle" x="106" y="-48.37" font-family="Helvetica,Arial,sans-serif" font-size="14.00">4</text>
</g>
<!-- 0&#45;&gt;4 -->
<g id="edge4" class="edge">
<title>0&#45;&gt;4</title>
<path fill="none" stroke="#ffc772" d="M36.73,-83.68C43.63,-76.4 52.52,-68.31 62,-63.07 66.85,-60.4 72.37,-58.35 77.8,-56.8"/>
<polygon fill="#ffc772" stroke="#ffc772" points="79.01,-60.11 87.92,-54.38 77.38,-53.3 79.01,-60.11"/>
<text text-anchor="middle" x="66" y="-66.87" font-family="Helvetica,Arial,sans-serif" font-size="14.00">a</text>
</g>
<!-- 1&#45;&gt;0 -->
<g id="edge5" class="edge">
<title>1&#45;&gt;0</title>
<path fill="none" stroke="#ffa9a9" d="M286.2,-83.66C277.11,-64.14 258.94,-32.51 232,-19.07 174.68,9.52 145.51,3.14 88,-25.07 67.06,-35.35 50.08,-55.74 38.74,-72.66"/>
<polygon fill="#ffa9a9" stroke="#ffa9a9" points="35.77,-70.82 33.33,-81.13 41.66,-74.59 35.77,-70.82"/>
<text text-anchor="middle" x="160" y="-7.87" font-family="Helvetica,Arial,sans-serif" font-size="14.00">e</text>
</g>
<!-- 2&#45;&gt;1 -->
<g id="edge6" class="edge">
<title>2&#45;&gt;1</title>
<path fill="none" stroke="#ffa9a9" d="M177.58,-140.95C196.98,-134.87 230.01,-124.28 258,-114.07 261.14,-112.93 264.41,-111.69 267.65,-110.43"/>
<polygon fill="#ffa9a9" stroke="#ffa9a9" points="269.05,-113.64 277.05,-106.7 266.46,-107.13 269.05,-113.64"/>
<text text-anchor="middle" x="214" y="-137.87" font-family="Helvetica,Arial,sans-serif" font-size="14.00">e</text>
</g>
<!-- 3&#45;&gt;1 -->
<g id="edge7" class="edge">
<title>3&#45;&gt;1</title>
<path fill="none" stroke="#ffa9a9" d="M178.26,-100.07C200.49,-100.07 239.4,-100.07 265.68,-100.07"/>
<polygon fill="#ffa9a9" stroke="#ffa9a9" points="265.74,-103.57 275.74,-100.07 265.74,-96.57 265.74,-103.57"/>
<text text-anchor="middle" x="214" y="-103.87" font-family="Helvetica,Arial,sans-serif" font-size="14.00">e</text>
</g>
<!-- 5 -->
<g id="node6" class="node">
<title>5</title>
<ellipse fill="none" stroke="black" cx="214" cy="-46.07" rx="18" ry="18"/>
<text text-anchor="middle" x="214" y="-42.37" font-family="Helvetica,Arial,sans-serif" font-size="14.00">5</text>
</g>
<!-- 4&#45;&gt;5 -->
<g id="edge8" class="edge">
<title>4&#45;&gt;5</title>
<path fill="none" stroke="#ffa9a9" d="M124.03,-51.11C140.72,-50.17 166.42,-48.71 185.92,-47.61"/>
<polygon fill="#ffa9a9" stroke="#ffa9a9" points="186.23,-51.1 196.01,-47.04 185.83,-44.11 186.23,-51.1"/>
<text text-anchor="middle" x="160" y="-52.87" font-family="Helvetica,Arial,sans-serif" font-size="14.00">e</text>
</g>
<!-- 5&#45;&gt;1 -->
<g id="edge9" class="edge">
<title>5&#45;&gt;1</title>
<path fill="none" stroke="#ffa9a9" d="M230.5,-54.27C238.86,-58.89 249.22,-64.95 258,-71.07 262.77,-74.41 267.7,-78.22 272.3,-81.97"/>
<polygon fill="#ffa9a9" stroke="#ffa9a9" points="270.2,-84.78 280.11,-88.52 274.7,-79.42 270.2,-84.78"/>
<text text-anchor="middle" x="254" y="-74.87" font-family="Helvetica,Arial,sans-serif" font-size="14.00">e</text>
</g>
</g>
</svg>
