<?xml version="1.0" encoding="UTF-8" standalone="no"?>
<!DOCTYPE svg PUBLIC "-//W3C//DTD SVG 1.1//EN"
 "http://www.w3.org/Graphics/SVG/1.1/DTD/svg11.dtd">
<!-- Generated by graphviz version 2.43.0 (0)
 -->
<!-- Title: th_ctx_acceptor Pages: 1 -->
<svg width="292pt" height="182pt"
 viewBox="0.00 0.00 292.00 182.00" xmlns="http://www.w3.org/2000/svg" xmlns:xlink="http://www.w3.org/1999/xlink">
<g id="graph0" class="graph" transform="scale(1 1) rotate(0) translate(4 178)">
<title>th_ctx_acceptor</title>
<polygon fill="white" stroke="transparent" points="-4,4 -4,-178 288,-178 288,4 -4,4"/>
<!-- 0 -->
<g id="node1" class="node">
<title>0</title>
<ellipse fill="none" stroke="magenta" cx="22" cy="-75" rx="18" ry="18"/>
<ellipse fill="none" stroke="magenta" cx="22" cy="-75" rx="22" ry="22"/>
<text text-anchor="middle" x="22" y="-71.3" font-family="Helvetica,Arial,sans-serif" font-size="14.00">0</text>
</g>
<!-- 0&#45;&gt;0 -->
<g id="edge1" class="edge">
<title>0&#45;&gt;0</title>
<path fill="none" stroke="#ffa9a9" d="M13.99,-95.58C12.89,-105.84 15.55,-115 22,-115 26.13,-115 28.71,-111.24 29.74,-105.84"/>
<polygon fill="#ffa9a9" stroke="#ffa9a9" points="33.24,-105.67 30.01,-95.58 26.25,-105.49 33.24,-105.67"/>
<text text-anchor="middle" x="22" y="-118.8" font-family="Helvetica,Arial,sans-serif" font-size="14.00">e</text>
</g>
<!-- 1 -->
<g id="node2" class="node">
<title>1</title>
<ellipse fill="none" stroke="black" cx="106" cy="-156" rx="18" ry="18"/>
<text text-anchor="middle" x="106" y="-152.3" font-family="Helvetica,Arial,sans-serif" font-size="14.00">1</text>
</g>
<!-- 0&#45;&gt;1 -->
<g id="edge2" class="edge">
<title>0&#45;&gt;1</title>
<path fill="none" stroke="#9cc0ff" d="M38.42,-90.24C51.65,-103.3 70.8,-122.22 85.17,-136.41"/>
<polygon fill="#9cc0ff" stroke="#9cc0ff" points="83.02,-139.21 92.59,-143.74 87.94,-134.23 83.02,-139.21"/>
<text text-anchor="middle" x="66" y="-123.8" font-family="Helvetica,Arial,sans-serif" font-size="14.00">i</text>
</g>
<!-- 2 -->
<g id="node3" class="node">
<title>2</title>
<ellipse fill="none" stroke="black" cx="106" cy="-102" rx="18" ry="18"/>
<text text-anchor="middle" x="106" y="-98.3" font-family="Helvetica,Arial,sans-serif" font-size="14.00">2</text>
</g>
<!-- 0&#45;&gt;2 -->
<g id="edge3" class="edge">
<title>0&#45;&gt;2</title>
<path fill="none" stroke="#ffc772" d="M43.27,-81.67C54.13,-85.25 67.62,-89.69 79.21,-93.51"/>
<polygon fill="#ffc772" stroke="#ffc772" points="78.21,-96.86 88.81,-96.67 80.4,-90.22 78.21,-96.86"/>
<text text-anchor="middle" x="66" y="-93.8" font-family="Helvetica,Arial,sans-serif" font-size="14.00">a</text>
</g>
<!-- 3 -->
<g id="node4" class="node">
<title>3</title>
<ellipse fill="none" stroke="black" cx="106" cy="-48" rx="18" ry="18"/>
<text text-anchor="middle" x="106" y="-44.3" font-family="Helvetica,Arial,sans-serif" font-size="14.00">3</text>
</g>
<!-- 0&#45;&gt;3 -->
<g id="edge4" class="edge">
<title>0&#45;&gt;3</title>
<path fill="none" stroke="#94ff96" d="M43.27,-68.33C54.13,-64.75 67.62,-60.31 79.21,-56.49"/>
<polygon fill="#94ff96" stroke="#94ff96" points="80.4,-59.78 88.81,-53.33 78.21,-53.14 80.4,-59.78"/>
<text text-anchor="middle" x="66" y="-64.8" font-family="Helvetica,Arial,sans-serif" font-size="14.00">o</text>
</g>
<!-- 4 -->
<g id="node5" class="node">
<title>4</title>
<ellipse fill="none" stroke="black" cx="186" cy="-75" rx="18" ry="18"/>
<text text-anchor="middle" x="186" y="-71.3" font-family="Helvetica,Arial,sans-serif" font-size="14.00">4</text>
</g>
<!-- 1&#45;&gt;4 -->
<g id="edge5" class="edge">
<title>1&#45;&gt;4</title>
<path fill="none" stroke="#ffa9a9" d="M119.19,-143.34C131.67,-130.39 151.24,-110.06 165.8,-94.93"/>
<polygon fill="#ffa9a9" stroke="#ffa9a9" points="168.48,-97.2 172.9,-87.57 163.44,-92.34 168.48,-97.2"/>
<text text-anchor="middle" x="146" y="-120.8" font-family="Helvetica,Arial,sans-serif" font-size="14.00">e</text>
</g>
<!-- 2&#45;&gt;4 -->
<g id="edge6" class="edge">
<title>2&#45;&gt;4</title>
<path fill="none" stroke="#ffa9a9" d="M123.16,-96.41C133.62,-92.79 147.46,-87.99 159.4,-83.86"/>
<polygon fill="#ffa9a9" stroke="#ffa9a9" points="160.55,-87.17 168.86,-80.59 158.26,-80.55 160.55,-87.17"/>
<text text-anchor="middle" x="146" y="-92.8" font-family="Helvetica,Arial,sans-serif" font-size="14.00">e</text>
</g>
<!-- 3&#45;&gt;4 -->
<g id="edge7" class="edge">
<title>3&#45;&gt;4</title>
<path fill="none" stroke="#ffa9a9" d="M123.16,-53.59C133.62,-57.21 147.46,-62.01 159.4,-66.14"/>
<polygon fill="#ffa9a9" stroke="#ffa9a9" points="158.26,-69.45 168.86,-69.41 160.55,-62.83 158.26,-69.45"/>
<text text-anchor="middle" x="146" y="-65.8" font-family="Helvetica,Arial,sans-serif" font-size="14.00">e</text>
</g>
<!-- 5 -->
<g id="node6" class="node">
<title>5</title>
<ellipse fill="none" stroke="black" cx="266" cy="-18" rx="18" ry="18"/>
<text text-anchor="middle" x="266" y="-14.3" font-family="Helvetica,Arial,sans-serif" font-size="14.00">5</text>
</g>
<!-- 4&#45;&gt;5 -->
<g id="edge8" class="edge">
<title>4&#45;&gt;5</title>
<path fill="none" stroke="#ffa9a9" d="M200.94,-64.81C212.52,-56.35 229.2,-44.16 242.64,-34.34"/>
<polygon fill="#ffa9a9" stroke="#ffa9a9" points="244.9,-37.02 250.91,-28.29 240.77,-31.37 244.9,-37.02"/>
<text text-anchor="middle" x="226" y="-51.8" font-family="Helvetica,Arial,sans-serif" font-size="14.00">e</text>
</g>
<!-- 5&#45;&gt;0 -->
<g id="edge9" class="edge">
<title>5&#45;&gt;0</title>
<path fill="none" stroke="#ffa9a9" d="M248.22,-14.71C215.98,-9.14 143.62,-0.38 88,-21 71.19,-27.23 55.61,-39.83 43.92,-51.28"/>
<polygon fill="#ffa9a9" stroke="#ffa9a9" points="41.3,-48.96 36.83,-58.57 46.32,-53.84 41.3,-48.96"/>
<text text-anchor="middle" x="146" y="-13.8" font-family="Helvetica,Arial,sans-serif" font-size="14.00">e</text>
</g>
</g>
</svg>
