<?xml version="1.0" encoding="UTF-8" standalone="no"?>
<!DOCTYPE svg PUBLIC "-//W3C//DTD SVG 1.1//EN"
 "http://www.w3.org/Graphics/SVG/1.1/DTD/svg11.dtd">
<!-- Generated by graphviz version 2.43.0 (0)
 -->
<!-- Title: G Pages: 1 -->
<svg width="283pt" height="62pt"
 viewBox="0.00 0.00 282.78 62.00" xmlns="http://www.w3.org/2000/svg" xmlns:xlink="http://www.w3.org/1999/xlink">
<g id="graph0" class="graph" transform="scale(1 1) rotate(0) translate(4 58)">
<title>G</title>
<polygon fill="white" stroke="transparent" points="-4,4 -4,-58 278.78,-58 278.78,4 -4,4"/>
<!-- Empty -->
<g id="node1" class="node">
<title>Empty</title>
<ellipse fill="none" stroke="black" cx="41.6" cy="-18" rx="41.69" ry="18"/>
<text text-anchor="middle" x="41.6" y="-14.3" font-family="Times,serif" font-size="14.00">Empty</text>
</g>
<!-- Raw -->
<g id="node2" class="node">
<title>Raw</title>
<ellipse fill="none" stroke="black" cx="149.74" cy="-18" rx="30.59" ry="18"/>
<text text-anchor="middle" x="149.74" y="-14.3" font-family="Times,serif" font-size="14.00">Raw</text>
</g>
<!-- Empty&#45;&gt;Raw -->
<g id="edge1" class="edge">
<title>Empty&#45;&gt;Raw</title>
<path fill="none" stroke="black" d="M83.33,-18C91.72,-18 100.54,-18 108.89,-18"/>
<polygon fill="black" stroke="black" points="109.16,-21.5 119.16,-18 109.16,-14.5 109.16,-21.5"/>
</g>
<!-- Raw&#45;&gt;Raw -->
<g id="edge2" class="edge">
<title>Raw&#45;&gt;Raw</title>
<path fill="none" stroke="black" d="M133.67,-33.54C129.14,-43.91 134.5,-54 149.74,-54 159.74,-54 165.48,-49.65 166.97,-43.74"/>
<polygon fill="black" stroke="black" points="170.42,-43.08 165.81,-33.54 163.47,-43.87 170.42,-43.08"/>
</g>
<!-- Run -->
<g id="node3" class="node">
<title>Run</title>
<ellipse fill="none" stroke="black" cx="245.53" cy="-18" rx="29.5" ry="18"/>
<text text-anchor="middle" x="245.53" y="-14.3" font-family="Times,serif" font-size="14.00">Run</text>
</g>
<!-- Raw&#45;&gt;Run -->
<g id="edge3" class="edge">
<title>Raw&#45;&gt;Run</title>
<path fill="none" stroke="black" d="M178.63,-11.77C187.75,-11.24 198.02,-11.12 207.7,-11.39"/>
<polygon fill="black" stroke="black" points="207.74,-14.9 217.88,-11.84 208.05,-7.9 207.74,-14.9"/>
</g>
<!-- Run&#45;&gt;Raw -->
<g id="edge5" class="edge">
<title>Run&#45;&gt;Raw</title>
<path fill="none" stroke="black" d="M217.88,-24.16C208.87,-24.72 198.62,-24.88 188.89,-24.64"/>
<polygon fill="black" stroke="black" points="188.76,-21.14 178.63,-24.23 188.48,-28.13 188.76,-21.14"/>
</g>
<!-- Run&#45;&gt;Run -->
<g id="edge4" class="edge">
<title>Run&#45;&gt;Run</title>
<path fill="none" stroke="black" d="M229.63,-33.17C224.81,-43.66 230.11,-54 245.53,-54 255.9,-54 261.69,-49.33 262.91,-43.09"/>
<polygon fill="black" stroke="black" points="266.37,-42.54 261.44,-33.17 259.45,-43.57 266.37,-42.54"/>
</g>
</g>
</svg>
